<?xml version="1.0" standalone="no"?>
<!DOCTYPE svg PUBLIC "-//W3C//DTD SVG 20010904//EN" "http://www.w3.org/TR/2001/REC-SVG-20010904/DTD/svg10.dtd">
<!-- Created using Krita: https://krita.org -->
<svg xmlns="http://www.w3.org/2000/svg" 
    xmlns:xlink="http://www.w3.org/1999/xlink"
    xmlns:krita="http://krita.org/namespaces/svg/krita"
    xmlns:sodipodi="http://sodipodi.sourceforge.net/DTD/sodipodi-0.dtd"
    width="730.56pt"
    height="733.2pt"
    viewBox="0 0 730.56 733.2">
<defs/>
<rect id="shape0" transform="matrix(0.993383465501913 0.114844201305782 -0.114844201305782 0.993383465501913 101.948461345764 36.9542131281892)" fill="#5d89cc" fill-rule="evenodd" stroke="#000000" stroke-width="9.6" stroke-linecap="square" stroke-linejoin="bevel" width="600" height="600"/><path id="shape1" transform="matrix(0.996872436998673 0.0893347808578142 -0.13553968950886 0.990990878051188 224.970946964325 165.660209929324)" fill="#891688" fill-rule="evenodd" stroke="#000000" stroke-width="9.6" stroke-linecap="square" stroke-linejoin="bevel" d="M0 194.283L0.0916667 191.179L0.343392 187.981L0.751227 184.693L1.31123 181.322L2.01944 177.871L2.87192 174.345L3.86472 170.749L4.99389 167.088L6.25549 163.365L7.64556 159.586L9.16017 155.756L10.7953 151.878L12.5472 147.959L14.4117 144.001L16.3849 140.011L18.4629 135.993L20.6418 131.951L22.9176 127.89L25.2863 123.814L27.744 119.729L30.2868 115.64L32.9106 111.55L35.6117 107.464L38.3859 103.387L41.2294 99.3242L44.1382 95.2797L47.1084 91.2582L50.136 87.2644L53.217 83.303L56.3476 79.3787L59.5238 75.496L62.7415 71.6598L65.997 67.8746L69.2862 64.145L72.6052 60.4759L75.95 56.8718L79.3167 53.3374L82.7013 49.8774L86.1 46.4964L89.5086 43.1991L92.9234 39.9902L96.3403 36.8743L99.7555 33.8561L103.165 30.9403L106.565 28.1315L109.951 25.4344L113.319 22.8536L116.666 20.3939L119.987 18.0598L123.279 15.8562L126.538 13.7875L129.759 11.8585L132.939 10.0739L136.074 8.43824L139.16 6.9563L142.192 5.63271L145.168 4.47213L148.082 3.47922L150.932 2.65866L152.017 2.40736L149.661 0L152.798 0.139673L156.028 0.474153L159.346 0.998613L160.459 1.23097L161.601 1.19313L161.404 1.42805L162.747 1.70823L166.228 2.59817L169.782 3.66361L173.406 4.89972L177.095 6.30169L180.845 7.86467L184.649 9.58385L188.505 11.4544L192.406 13.4715L196.349 15.6303L200.329 17.926L204.341 20.3537L208.38 22.9087L212.442 25.5861L216.522 28.3811L220.616 31.2888L224.719 34.3045L228.825 37.4233L232.931 40.6403L237.031 43.9508L241.122 47.35L245.198 50.8329L249.255 54.3948L253.288 58.0308L257.292 61.7362L261.263 65.506L265.196 69.3355L269.086 73.2199L272.929 77.1542L276.72 81.1338L280.454 85.1537L284.127 89.2091L287.734 93.2953L291.27 97.4073L294.731 101.54L298.112 105.69L301.408 109.85L304.615 114.018L307.727 118.187L310.741 122.353L313.652 126.511L316.454 130.656L319.144 134.784L321.716 138.889L324.166 142.967L326.49 147.013L328.682 151.023L330.737 154.99L332.653 158.911L334.422 162.781L336.042 166.594L337.506 170.347L338.812 174.034L339.953 177.65L340.925 181.19L341.724 184.651L342.222 187.361L345.443 184.356L345.346 187.218L345.06 190.166L344.588 193.197L343.935 196.307L343.106 199.49L342.105 202.743L340.938 206.062L339.609 209.441L338.123 212.878L336.484 216.367L334.696 219.903L332.766 223.484L330.697 227.104L328.494 230.76L326.161 234.446L323.704 238.159L321.128 241.894L318.436 245.646L315.633 249.413L312.724 253.189L309.715 256.969L306.608 260.75L303.41 264.528L300.125 268.298L296.757 272.055L293.312 275.795L289.793 279.515L286.206 283.209L282.555 286.874L278.845 290.505L275.081 294.098L271.267 297.648L267.407 301.151L263.508 304.603L259.573 308L255.607 311.336L251.614 314.609L247.6 317.813L243.569 320.944L239.525 323.999L235.474 326.971L231.42 329.859L227.368 332.656L223.322 335.358L219.287 337.962L215.268 340.464L211.27 342.857L207.297 345.139L203.353 347.306L199.444 349.352L195.574 351.273L191.748 353.065L187.971 354.725L184.247 356.246L180.581 357.626L176.977 358.86L173.44 359.943L169.976 360.871L166.588 361.641L163.281 362.247L161.144 362.537L161.565 362.973L159.006 362.918L158.156 362.847L156.931 362.951L153.896 363.04L154.543 362.437L153.653 362.311L150.866 361.767L148.012 361.068L145.094 360.219L142.116 359.223L139.082 358.085L135.995 356.808L132.86 355.397L129.681 353.856L126.461 352.189L123.205 350.4L119.916 348.493L116.598 346.472L113.255 344.341L109.892 342.105L106.511 339.767L103.117 337.331L99.7134 334.802L96.3048 332.184L92.8947 329.481L89.487 326.696L86.0857 323.835L82.6946 320.9L79.3177 317.897L75.9588 314.829L72.6219 311.7L69.3108 308.515L66.0295 305.276L62.7819 301.99L59.5718 298.659L56.4033 295.288L53.2801 291.881L50.2062 288.441L47.1855 284.974L44.2219 281.483L41.3193 277.972L38.4816 274.445L35.7127 270.906L33.0165 267.36L30.397 263.811L27.858 260.262L25.4034 256.717L23.0371 253.182L20.7631 249.659L18.5852 246.153L16.5073 242.669L14.5334 239.209L12.6674 235.779L10.9131 232.382L9.27449 229.022L7.75544 225.704L6.35985 222.431L5.09164 219.208L3.95471 216.039L2.95297 212.927L2.09031 209.878L1.37065 206.894L0.797878 203.981L0.375912 201.141"/><rect id="shape2" transform="matrix(0.993383465501913 0.114844201305782 -0.114844201305782 0.993383465501913 138.771745435701 99.2363758817967)" fill="#c04a6d" fill-rule="evenodd" stroke="#000000" stroke-width="9.6" stroke-linecap="square" stroke-linejoin="bevel" width="518.4" height="51.84"/><rect id="shape01" transform="matrix(-0.113088441873325 0.993584865388769 -0.993584865388769 -0.113088441873325 624.048608705914 132.056765117048)" fill="#dd3062" stroke="#000000" stroke-width="9.6" stroke-linecap="square" stroke-linejoin="bevel" width="518.4" height="51.84"/><rect id="shape011" transform="matrix(0.993383485209793 0.114844203584191 -0.114844203584191 0.993383485209793 92.7132898027681 516.907709596878)" fill="#e54175" stroke="#000000" stroke-width="9.6" stroke-linecap="square" stroke-linejoin="bevel" width="518.4" height="51.84"/><rect id="shape02" transform="matrix(-0.113088436317727 0.993584816577791 -0.993584816577791 -0.113088436317727 214.097721014171 160.447553276889)" fill="#cb145a" stroke="#000000" stroke-width="9.6" stroke-linecap="square" stroke-linejoin="bevel" width="444.621576671928" height="51.84"/><ellipse id="shape3" transform="matrix(0.993383465501913 0.114844201305782 -0.114844201305782 0.993383465501913 341.219625512879 332.348716317741)" rx="30.72" ry="28.8" cx="30.72" cy="28.8" fill="#ffff00" fill-rule="evenodd" stroke="#000000" stroke-width="9.6" stroke-linecap="square" stroke-linejoin="bevel"/><ellipse id="shape4" transform="matrix(0.993383465501913 0.114844201305782 -0.114844201305782 0.993383465501913 357.957692609874 194.881443097044)" rx="28.8" ry="64.32" cx="28.8" cy="64.32" fill="#ffea00" fill-rule="evenodd" stroke="#000000" stroke-width="9.6" stroke-linecap="square" stroke-linejoin="bevel"/><ellipse id="shape03" transform="matrix(0.993383503059415 0.114844205647772 -0.114844205647772 0.993383503059415 335.62790010375 398.944571358513)" rx="28.8" ry="64.32" cx="28.8" cy="64.32" fill="#ffea00" stroke="#000000" stroke-width="9.6" stroke-linecap="square" stroke-linejoin="bevel"/><ellipse id="shape04" transform="matrix(-0.118001025801203 0.993013460951727 -0.993013460951727 -0.118001025801203 538.993095875689 354.289016195919)" rx="28.8" ry="64.32" cx="28.8" cy="64.32" fill="#ffea00" stroke="#000000" stroke-width="9.6" stroke-linecap="square" stroke-linejoin="bevel"/><ellipse id="shape05" transform="matrix(-0.118001021067197 0.993013421113652 -0.993013421113652 -0.118001021067197 333.33599722956 332.666421068127)" rx="28.8" ry="64.32" cx="28.8" cy="64.32" fill="#ffea00" stroke="#000000" stroke-width="9.6" stroke-linecap="square" stroke-linejoin="bevel"/><ellipse id="shape06" transform="matrix(0.993383466967376 0.114844201475201 -0.114844201475201 0.993383466967376 422.622807079822 271.508268005902)" rx="30.72" ry="28.8" cx="30.72" cy="28.8" fill="#ffff7d" stroke="#000000" stroke-width="9.6" stroke-linecap="square" stroke-linejoin="bevel"/><ellipse id="shape07" transform="matrix(0.993383466967376 0.114844201475201 -0.114844201475201 0.993383466967376 272.257859819328 255.574297785942)" rx="30.72" ry="28.8" cx="30.72" cy="28.8" fill="#ffff7d" stroke="#000000" stroke-width="9.6" stroke-linecap="square" stroke-linejoin="bevel"/><ellipse id="shape08" transform="matrix(0.993383466967376 0.114844201475201 -0.114844201475201 0.993383466967376 262.020998936754 394.27635903413)" rx="30.72" ry="28.8" cx="30.72" cy="28.8" fill="#ffff7d" stroke="#000000" stroke-width="9.6" stroke-linecap="square" stroke-linejoin="bevel"/><ellipse id="shape09" transform="matrix(0.99338344816168 0.114844199301091 -0.114844199301091 0.99338344816168 404.130892494987 408.101736976314)" rx="30.72" ry="28.8" cx="30.72" cy="28.8" fill="#ffff7d" stroke="#000000" stroke-width="9.6" stroke-linecap="square" stroke-linejoin="bevel"/><rect id="shape010" transform="matrix(-0.113088430316683 0.993584763853157 -0.993584763853157 -0.113088430316683 222.824606105554 85.5749768833568)" fill="#fe1392" stroke="#000000" stroke-width="9.6" stroke-linecap="square" stroke-linejoin="bevel" width="23.1870065795509" height="51.84"/><path id="shape5" transform="matrix(0.993383465501913 0.114844201305782 -0.114844201305782 0.993383465501913 678.510494448366 113.798597942725)" fill="none" stroke="#000000" stroke-width="9.6" stroke-linecap="square" stroke-linejoin="bevel" d="M11.76 0C-3.92 123.84 -3.92 321.44 11.76 592.8C14.32 593.44 14.32 395.84 11.76 0Z"/><path id="shape0111" transform="matrix(-0.111715353232245 0.99374019902504 -0.99374019902504 -0.111715353232245 628.857999440993 683.989895900744)" fill="none" stroke="#000000" stroke-width="9.6" stroke-linecap="square" stroke-linejoin="bevel" d="M11.76 0C-3.92 123.84 -3.92 321.44 11.76 592.8C14.32 593.44 14.32 395.84 11.76 0Z"/><path id="shape012" transform="matrix(0.121297220967264 -0.992616190663893 0.992616190663893 0.121297220967264 100.171840558756 54.5284507267752)" fill="none" stroke="#000000" stroke-width="9.6" stroke-linecap="square" stroke-linejoin="bevel" d="M11.76 0C-3.92 123.84 -3.92 321.44 11.76 592.8C14.32 593.44 14.32 395.84 11.76 0Z"/><path id="shape013" transform="matrix(-0.992024764225234 -0.126042790140583 0.126042790140583 -0.992024764225234 48.699320751392 626.668018725167)" fill="none" stroke="#000000" stroke-width="9.6" stroke-linecap="square" stroke-linejoin="bevel" d="M11.76 0C-3.92 123.84 -3.92 321.44 11.76 592.8C14.32 593.44 14.32 395.84 11.76 0Z"/><ellipse id="shape014" transform="matrix(0.992175038326895 0.12485406923377 -0.12485406923377 0.992175038326895 689.859759957031 176.070212393143)" rx="14.4" ry="12.96" cx="14.4" cy="12.96" fill="#ffea00" stroke="#000000" stroke-width="1" stroke-linecap="square" stroke-linejoin="bevel"/><ellipse id="shape015" transform="matrix(0.992175038326895 0.12485406923377 -0.12485406923377 0.992175038326895 685.65024597468 210.163526464168)" rx="14.4" ry="12.96" cx="14.4" cy="12.96" fill="#ffea00" stroke="#000000" stroke-width="1" stroke-linecap="square" stroke-linejoin="bevel"/><ellipse id="shape0111" transform="matrix(0.992175038326895 0.12485406923377 -0.12485406923377 0.992175038326895 681.155499507442 245.881827643778)" rx="14.4" ry="12.96" cx="14.4" cy="12.96" fill="#ffea00" stroke="#000000" stroke-width="1" stroke-linecap="square" stroke-linejoin="bevel"/><ellipse id="shape021" transform="matrix(0.992175038326895 0.12485406923377 -0.12485406923377 0.992175038326895 677.225294181566 282.880633792052)" rx="14.4" ry="12.96" cx="14.4" cy="12.96" fill="#ffea00" stroke="#000000" stroke-width="1" stroke-linecap="square" stroke-linejoin="bevel"/><ellipse id="shape031" transform="matrix(0.992175038326895 0.12485406923377 -0.12485406923377 0.992175038326895 673.503245887111 320.147526924643)" rx="14.4" ry="12.96" cx="14.4" cy="12.96" fill="#ffea00" stroke="#000000" stroke-width="1" stroke-linecap="square" stroke-linejoin="bevel"/><ellipse id="shape041" transform="matrix(0.992175029252536 0.124854068091861 -0.124854068091861 0.992175029252536 669.188916857843 351.997283244953)" rx="14.4" ry="12.96" cx="14.4" cy="12.96" fill="#ffea00" stroke="#000000" stroke-width="1" stroke-linecap="square" stroke-linejoin="bevel"/><ellipse id="shape051" transform="matrix(0.992175029252536 0.124854068091861 -0.124854068091861 0.992175029252536 664.979402913985 386.090597004162)" rx="14.4" ry="12.96" cx="14.4" cy="12.96" fill="#ffea00" stroke="#000000" stroke-width="1" stroke-linecap="square" stroke-linejoin="bevel"/><ellipse id="shape01111" transform="matrix(0.992175029252536 0.124854068091861 -0.124854068091861 0.992175029252536 660.484656487868 421.808897857098)" rx="14.4" ry="12.96" cx="14.4" cy="12.96" fill="#ffea00" stroke="#000000" stroke-width="1" stroke-linecap="square" stroke-linejoin="bevel"/><ellipse id="shape0211" transform="matrix(0.992175029252536 0.124854068091861 -0.124854068091861 0.992175029252536 656.554451197935 458.807703666984)" rx="14.4" ry="12.96" cx="14.4" cy="12.96" fill="#ffea00" stroke="#000000" stroke-width="1" stroke-linecap="square" stroke-linejoin="bevel"/><ellipse id="shape0311" transform="matrix(0.992175029252536 0.124854068091861 -0.124854068091861 0.992175029252536 652.832402937514 496.074596458739)" rx="14.4" ry="12.96" cx="14.4" cy="12.96" fill="#ffea00" stroke="#000000" stroke-width="1" stroke-linecap="square" stroke-linejoin="bevel"/><ellipse id="shape061" transform="matrix(0.992175033607225 0.124854068639854 -0.124854068639854 0.992175033607225 647.114760993695 535.672080833634)" rx="14.4" ry="12.96" cx="14.4" cy="12.96" fill="#ffea00" stroke="#000000" stroke-width="1" stroke-linecap="square" stroke-linejoin="bevel"/><ellipse id="shape0112" transform="matrix(0.992175033607225 0.124854068639854 -0.124854068639854 0.992175033607225 642.905247031361 569.765394742474)" rx="14.4" ry="12.96" cx="14.4" cy="12.96" fill="#ffea00" stroke="#000000" stroke-width="1" stroke-linecap="square" stroke-linejoin="bevel"/><ellipse id="shape0121" transform="matrix(0.992175033607225 0.124854068639854 -0.124854068639854 0.992175033607225 638.41050058551 605.48369575218)" rx="14.4" ry="12.96" cx="14.4" cy="12.96" fill="#ffea00" stroke="#000000" stroke-width="1" stroke-linecap="square" stroke-linejoin="bevel"/><ellipse id="shape02111" transform="matrix(0.992175033607225 0.124854068639854 -0.124854068639854 0.992175033607225 634.480295278331 642.482501724458)" rx="14.4" ry="12.96" cx="14.4" cy="12.96" fill="#ffea00" stroke="#000000" stroke-width="1" stroke-linecap="square" stroke-linejoin="bevel"/><ellipse id="shape071" transform="matrix(0.99217502031817 0.124854066967575 -0.124854066967575 0.99217502031817 697.784443729967 106.872083610565)" rx="14.4" ry="12.96" cx="14.4" cy="12.96" fill="#ffea00" stroke="#000000" stroke-width="1" stroke-linecap="square" stroke-linejoin="bevel"/><ellipse id="shape0131" transform="matrix(0.99217502031817 0.124854066967575 -0.124854066967575 0.99217502031817 693.289697344306 142.590384141864)" rx="14.4" ry="12.96" cx="14.4" cy="12.96" fill="#ffea00" stroke="#000000" stroke-width="1" stroke-linecap="square" stroke-linejoin="bevel"/><ellipse id="shape016" transform="matrix(0.992175038326911 0.124854069233771 -0.124854069233771 0.992175038326911 63.5653613342538 102.310645180558)" rx="14.4" ry="12.96" cx="14.4" cy="12.96" fill="#ffea00" stroke="#000000" stroke-width="1" stroke-linecap="square" stroke-linejoin="bevel"/><ellipse id="shape017" transform="matrix(0.992175038326911 0.124854069233771 -0.124854069233771 0.992175038326911 59.3558473519007 136.403959251579)" rx="14.4" ry="12.96" cx="14.4" cy="12.96" fill="#ffea00" stroke="#000000" stroke-width="1" stroke-linecap="square" stroke-linejoin="bevel"/><ellipse id="shape0122" transform="matrix(0.992175038326911 0.124854069233771 -0.124854069233771 0.992175038326911 54.8611008846658 172.122260431191)" rx="14.4" ry="12.96" cx="14.4" cy="12.96" fill="#ffea00" stroke="#000000" stroke-width="1" stroke-linecap="square" stroke-linejoin="bevel"/><ellipse id="shape022" transform="matrix(0.992175038326911 0.124854069233771 -0.124854069233771 0.992175038326911 50.9308955587877 209.12106657947)" rx="14.4" ry="12.96" cx="14.4" cy="12.96" fill="#ffea00" stroke="#000000" stroke-width="1" stroke-linecap="square" stroke-linejoin="bevel"/><ellipse id="shape032" transform="matrix(0.992175038326911 0.124854069233771 -0.124854069233771 0.992175038326911 47.2088472643335 246.387959712058)" rx="14.4" ry="12.96" cx="14.4" cy="12.96" fill="#ffea00" stroke="#000000" stroke-width="1" stroke-linecap="square" stroke-linejoin="bevel"/><ellipse id="shape0411" transform="matrix(0.992175029252536 0.124854068091861 -0.124854068091861 0.992175029252536 42.8945182350669 278.23771603237)" rx="14.4" ry="12.96" cx="14.4" cy="12.96" fill="#ffea00" stroke="#000000" stroke-width="1" stroke-linecap="square" stroke-linejoin="bevel"/><ellipse id="shape0511" transform="matrix(0.992175029252536 0.124854068091861 -0.124854068091861 0.992175029252536 38.685004291207 312.331029791576)" rx="14.4" ry="12.96" cx="14.4" cy="12.96" fill="#ffea00" stroke="#000000" stroke-width="1" stroke-linecap="square" stroke-linejoin="bevel"/><ellipse id="shape0132" transform="matrix(0.992175029252536 0.124854068091861 -0.124854068091861 0.992175029252536 34.1902578650912 348.049330644514)" rx="14.4" ry="12.96" cx="14.4" cy="12.96" fill="#ffea00" stroke="#000000" stroke-width="1" stroke-linecap="square" stroke-linejoin="bevel"/><ellipse id="shape023" transform="matrix(0.992175029252536 0.124854068091861 -0.124854068091861 0.992175029252536 30.2600525751538 385.048136454405)" rx="14.4" ry="12.96" cx="14.4" cy="12.96" fill="#ffea00" stroke="#000000" stroke-width="1" stroke-linecap="square" stroke-linejoin="bevel"/><ellipse id="shape033" transform="matrix(0.992175029252536 0.124854068091861 -0.124854068091861 0.992175029252536 26.5380043147382 422.315029246155)" rx="14.4" ry="12.96" cx="14.4" cy="12.96" fill="#ffea00" stroke="#000000" stroke-width="1" stroke-linecap="square" stroke-linejoin="bevel"/><ellipse id="shape0611" transform="matrix(0.992175033607238 0.124854068639853 -0.124854068639853 0.992175033607238 22.6679983675048 461.390363072522)" rx="14.4" ry="12.96" cx="14.4" cy="12.96" fill="#ffea00" stroke="#000000" stroke-width="1" stroke-linecap="square" stroke-linejoin="bevel"/><ellipse id="shape01111" transform="matrix(0.992175033607238 0.124854068639853 -0.124854068639853 0.992175033607238 18.4584844051683 495.483676981367)" rx="14.4" ry="12.96" cx="14.4" cy="12.96" fill="#ffea00" stroke="#000000" stroke-width="1" stroke-linecap="square" stroke-linejoin="bevel"/><ellipse id="shape01211" transform="matrix(0.992175033607238 0.124854068639853 -0.124854068639853 0.992175033607238 13.9637379593175 531.201977991068)" rx="14.4" ry="12.96" cx="14.4" cy="12.96" fill="#ffea00" stroke="#000000" stroke-width="1" stroke-linecap="square" stroke-linejoin="bevel"/><ellipse id="shape02111" transform="matrix(0.992175033607238 0.124854068639853 -0.124854068639853 0.992175033607238 10.0335326521367 568.200783963348)" rx="14.4" ry="12.96" cx="14.4" cy="12.96" fill="#ffea00" stroke="#000000" stroke-width="1" stroke-linecap="square" stroke-linejoin="bevel"/><ellipse id="shape03111" transform="matrix(0.992175033607254 0.124854068639855 -0.124854068639855 0.992175033607254 6.31148437538682 605.467676918665)" rx="14.4" ry="12.96" cx="14.4" cy="12.96" fill="#ffea00" stroke="#000000" stroke-width="1" stroke-linecap="square" stroke-linejoin="bevel"/><ellipse id="shape0711" transform="matrix(0.992175020318157 0.124854066967572 -0.124854066967572 0.992175020318157 71.4900451071895 33.1125163979795)" rx="14.4" ry="12.96" cx="14.4" cy="12.96" fill="#ffea00" stroke="#000000" stroke-width="1" stroke-linecap="square" stroke-linejoin="bevel"/><ellipse id="shape01311" transform="matrix(0.992175020318157 0.124854066967572 -0.124854066967572 0.992175020318157 66.9952987215295 68.83081692928)" rx="14.4" ry="12.96" cx="14.4" cy="12.96" fill="#ffea00" stroke="#000000" stroke-width="1" stroke-linecap="square" stroke-linejoin="bevel"/><ellipse id="shape018" transform="matrix(-0.130777470623978 0.991411669519987 -0.991411669519987 -0.130777470623978 633.016837234997 71.6985966877045)" rx="14.4" ry="12.96" cx="14.4" cy="12.96" fill="#ffea00" stroke="#000000" stroke-width="1" stroke-linecap="square" stroke-linejoin="bevel"/><ellipse id="shape019" transform="matrix(-0.130777470623978 0.991411669519987 -0.991411669519987 -0.130777470623978 598.949271948148 67.2855401801118)" rx="14.4" ry="12.96" cx="14.4" cy="12.96" fill="#ffea00" stroke="#000000" stroke-width="1" stroke-linecap="square" stroke-linejoin="bevel"/><ellipse id="shape0141" transform="matrix(-0.130777470623978 0.991411669519987 -0.991411669519987 -0.130777470623978 563.258452045433 62.5775512640229)" rx="14.4" ry="12.96" cx="14.4" cy="12.96" fill="#ffea00" stroke="#000000" stroke-width="1" stroke-linecap="square" stroke-linejoin="bevel"/><ellipse id="shape024" transform="matrix(-0.130777470623978 0.991411669519987 -0.991411669519987 -0.130777470623978 526.283778367637 58.4264457821296)" rx="14.4" ry="12.96" cx="14.4" cy="12.96" fill="#ffea00" stroke="#000000" stroke-width="1" stroke-linecap="square" stroke-linejoin="bevel"/><ellipse id="shape034" transform="matrix(-0.130777470623978 0.991411669519987 -0.991411669519987 -0.130777470623978 489.039779297714 54.4818925068167)" rx="14.4" ry="12.96" cx="14.4" cy="12.96" fill="#ffea00" stroke="#000000" stroke-width="1" stroke-linecap="square" stroke-linejoin="bevel"/><ellipse id="shape042" transform="matrix(-0.130777469427899 0.991411660452627 -0.991411660452627 -0.130777469427899 457.216357741736 49.9774221598773)" rx="14.4" ry="12.96" cx="14.4" cy="12.96" fill="#ffea00" stroke="#000000" stroke-width="1" stroke-linecap="square" stroke-linejoin="bevel"/><ellipse id="shape052" transform="matrix(-0.130777469427899 0.991411660452627 -0.991411660452627 -0.130777469427899 423.148792766463 45.5643656926375)" rx="14.4" ry="12.96" cx="14.4" cy="12.96" fill="#ffea00" stroke="#000000" stroke-width="1" stroke-linecap="square" stroke-linejoin="bevel"/><ellipse id="shape0151" transform="matrix(-0.130777469427899 0.991411660452627 -0.991411660452627 -0.130777469427899 387.457973190168 40.8563768196207)" rx="14.4" ry="12.96" cx="14.4" cy="12.96" fill="#ffea00" stroke="#000000" stroke-width="1" stroke-linecap="square" stroke-linejoin="bevel"/><ellipse id="shape025" transform="matrix(-0.130777469427899 0.991411660452627 -0.991411660452627 -0.130777469427899 350.48329985054 36.7052713756849)" rx="14.4" ry="12.96" cx="14.4" cy="12.96" fill="#ffea00" stroke="#000000" stroke-width="1" stroke-linecap="square" stroke-linejoin="bevel"/><ellipse id="shape035" transform="matrix(-0.130777469427899 0.991411660452627 -0.991411660452627 -0.130777469427899 313.23930112125 32.7607181364464)" rx="14.4" ry="12.96" cx="14.4" cy="12.96" fill="#ffea00" stroke="#000000" stroke-width="1" stroke-linecap="square" stroke-linejoin="bevel"/><ellipse id="shape062" transform="matrix(-0.130777470001887 0.991411664803968 -0.991411664803968 -0.130777470001887 275.573504122319 28.265796314154)" rx="14.4" ry="12.96" cx="14.4" cy="12.96" fill="#ffea00" stroke="#000000" stroke-width="1" stroke-linecap="square" stroke-linejoin="bevel"/><ellipse id="shape01121" transform="matrix(-0.130777470001887 0.991411664803968 -0.991411664803968 -0.130777470001887 241.505938997524 23.8527398275454)" rx="14.4" ry="12.96" cx="14.4" cy="12.96" fill="#ffea00" stroke="#000000" stroke-width="1" stroke-linecap="square" stroke-linejoin="bevel"/><ellipse id="shape01221" transform="matrix(-0.130777470001887 0.991411664803968 -0.991411664803968 -0.130777470001887 205.815119264584 19.1447509338555)" rx="14.4" ry="12.96" cx="14.4" cy="12.96" fill="#ffea00" stroke="#000000" stroke-width="1" stroke-linecap="square" stroke-linejoin="bevel"/><ellipse id="shape0212" transform="matrix(-0.130777470001887 0.991411664803968 -0.991411664803968 -0.130777470001887 168.840445762672 14.9936454717081)" rx="14.4" ry="12.96" cx="14.4" cy="12.96" fill="#ffea00" stroke="#000000" stroke-width="1" stroke-linecap="square" stroke-linejoin="bevel"/><ellipse id="shape03111" transform="matrix(-0.130777470001887 0.991411664803968 -0.991411664803968 -0.130777470001887 131.596446869916 11.0490922151599)" rx="14.4" ry="12.96" cx="14.4" cy="12.96" fill="#ffea00" stroke="#000000" stroke-width="1" stroke-linecap="square" stroke-linejoin="bevel"/><ellipse id="shape072" transform="matrix(-0.130777468250269 0.991411651525116 -0.991411651525116 -0.130777468250269 702.16640281169 80.036415375221)" rx="14.4" ry="12.96" cx="14.4" cy="12.96" fill="#ffea00" stroke="#000000" stroke-width="1" stroke-linecap="square" stroke-linejoin="bevel"/><ellipse id="shape01321" transform="matrix(-0.130777468250269 0.991411651525116 -0.991411651525116 -0.130777468250269 666.475583556788 75.3284265445763)" rx="14.4" ry="12.96" cx="14.4" cy="12.96" fill="#ffea00" stroke="#000000" stroke-width="1" stroke-linecap="square" stroke-linejoin="bevel"/><ellipse id="shape020" transform="matrix(-0.122454925761351 0.992473997865948 -0.992473997865948 -0.122454925761351 556.01333742953 692.407220400081)" rx="14.4" ry="12.96" cx="14.4" cy="12.96" fill="#ffea00" stroke="#000000" stroke-width="1" stroke-linecap="square" stroke-linejoin="bevel"/><ellipse id="shape02121" transform="matrix(-0.122454925761351 0.992473997865948 -0.992473997865948 -0.122454925761351 521.909945671631 688.280146022232)" rx="14.4" ry="12.96" cx="14.4" cy="12.96" fill="#ffea00" stroke="#000000" stroke-width="1" stroke-linecap="square" stroke-linejoin="bevel"/><ellipse id="shape0161" transform="matrix(-0.122454925761351 0.992473997865948 -0.992473997865948 -0.122454925761351 486.180881948672 683.87176871952)" rx="14.4" ry="12.96" cx="14.4" cy="12.96" fill="#ffea00" stroke="#000000" stroke-width="1" stroke-linecap="square" stroke-linejoin="bevel"/><ellipse id="shape026" transform="matrix(-0.122454925761351 0.992473997865948 -0.992473997865948 -0.122454925761351 449.1726818889 680.03102678119)" rx="14.4" ry="12.96" cx="14.4" cy="12.96" fill="#ffea00" stroke="#000000" stroke-width="1" stroke-linecap="square" stroke-linejoin="bevel"/><ellipse id="shape036" transform="matrix(-0.122454925761351 0.992473997865948 -0.992473997865948 -0.122454925761351 411.896898888948 676.399089418989)" rx="14.4" ry="12.96" cx="14.4" cy="12.96" fill="#ffea00" stroke="#000000" stroke-width="1" stroke-linecap="square" stroke-linejoin="bevel"/><ellipse id="shape043" transform="matrix(-0.122454924641389 0.992473988788846 -0.992473988788846 -0.122454924641389 380.036804913643 672.161776057824)" rx="14.4" ry="12.96" cx="14.4" cy="12.96" fill="#ffea00" stroke="#000000" stroke-width="1" stroke-linecap="square" stroke-linejoin="bevel"/><ellipse id="shape053" transform="matrix(-0.122454924641389 0.992473988788846 -0.992473988788846 -0.122454924641389 345.933413467653 668.034701717717)" rx="14.4" ry="12.96" cx="14.4" cy="12.96" fill="#ffea00" stroke="#000000" stroke-width="1" stroke-linecap="square" stroke-linejoin="bevel"/><ellipse id="shape0171" transform="matrix(-0.122454924641389 0.992473988788846 -0.992473988788846 -0.122454924641389 310.204350071471 663.626324455336)" rx="14.4" ry="12.96" cx="14.4" cy="12.96" fill="#ffea00" stroke="#000000" stroke-width="1" stroke-linecap="square" stroke-linejoin="bevel"/><ellipse id="shape027" transform="matrix(-0.122454924641389 0.992473988788846 -0.992473988788846 -0.122454924641389 273.196150350169 659.785582552121)" rx="14.4" ry="12.96" cx="14.4" cy="12.96" fill="#ffea00" stroke="#000000" stroke-width="1" stroke-linecap="square" stroke-linejoin="bevel"/><ellipse id="shape037" transform="matrix(-0.122454924641389 0.992473988788846 -0.992473988788846 -0.122454924641389 235.920367691137 656.15364522314)" rx="14.4" ry="12.96" cx="14.4" cy="12.96" fill="#ffea00" stroke="#000000" stroke-width="1" stroke-linecap="square" stroke-linejoin="bevel"/><ellipse id="shape063" transform="matrix(-0.12245492517885 0.992473993144854 -0.992473993144854 -0.12245492517885 196.835791566055 652.378122902149)" rx="14.4" ry="12.96" cx="14.4" cy="12.96" fill="#ffea00" stroke="#000000" stroke-width="1" stroke-linecap="square" stroke-linejoin="bevel"/><ellipse id="shape0113" transform="matrix(-0.12245492517885 0.992473993144854 -0.992473993144854 -0.12245492517885 162.732399970381 648.25104854393)" rx="14.4" ry="12.96" cx="14.4" cy="12.96" fill="#ffea00" stroke="#000000" stroke-width="1" stroke-linecap="square" stroke-linejoin="bevel"/><ellipse id="shape0123" transform="matrix(-0.12245492517885 0.992473993144854 -0.992473993144854 -0.12245492517885 127.003336417385 643.842671262194)" rx="14.4" ry="12.96" cx="14.4" cy="12.96" fill="#ffea00" stroke="#000000" stroke-width="1" stroke-linecap="square" stroke-linejoin="bevel"/><ellipse id="shape0213" transform="matrix(-0.12245492517885 0.992473993144854 -0.992473993144854 -0.12245492517885 89.9951365336522 640.001929342125)" rx="14.4" ry="12.96" cx="14.4" cy="12.96" fill="#ffea00" stroke="#000000" stroke-width="1" stroke-linecap="square" stroke-linejoin="bevel"/><ellipse id="shape0312" transform="matrix(-0.12245492517885 0.992473993144854 -0.992473993144854 -0.12245492517885 52.7193537110174 636.36999199721)" rx="14.4" ry="12.96" cx="14.4" cy="12.96" fill="#ffea00" stroke="#000000" stroke-width="1" stroke-linecap="square" stroke-linejoin="bevel"/><ellipse id="shape073" transform="matrix(-0.122454923538702 0.992473979851764 -0.992473979851764 -0.122454923538702 625.230423455166 700.164580906771)" rx="14.4" ry="12.96" cx="14.4" cy="12.96" fill="#ffea00" stroke="#000000" stroke-width="1" stroke-linecap="square" stroke-linejoin="bevel"/><ellipse id="shape0133" transform="matrix(-0.122454923538702 0.992473979851764 -0.992473979851764 -0.122454923538702 589.501360380718 695.756203684067)" rx="14.4" ry="12.96" cx="14.4" cy="12.96" fill="#ffea00" stroke="#000000" stroke-width="1" stroke-linecap="square" stroke-linejoin="bevel"/><ellipse id="shape0313" transform="matrix(0.992175005822266 0.124854065143427 -0.124854065143427 0.992175005822266 629.141656312734 676.641682412583)" rx="14.4" ry="12.96" cx="14.4" cy="12.96" fill="#ffea00" stroke="#000000" stroke-width="1" stroke-linecap="square" stroke-linejoin="bevel"/><path id="shape6" transform="matrix(0.962310370582548 -0.271953398168534 0.271953398168534 0.962310370582548 102.534843575304 40.1530422186226)" fill="none" stroke="#000000" stroke-width="2.88" stroke-linecap="square" stroke-linejoin="miter" stroke-miterlimit="2" stroke-dasharray="2.88,5.76" d="M0 0L336.696 765.712"/><path id="shape7" transform="matrix(0.962310370582548 -0.271953398168534 0.271953398168534 0.962310370582548 -47.4307378052966 318.026118970131)" fill="none" stroke="#000000" stroke-width="2.88" stroke-linecap="square" stroke-linejoin="miter" stroke-miterlimit="2" stroke-dasharray="2.88,5.76" d="M771.84 0L0 318.72"/>
</svg>
