<?xml version="1.0" standalone="no"?>
<!DOCTYPE svg PUBLIC "-//W3C//DTD SVG 20010904//EN" "http://www.w3.org/TR/2001/REC-SVG-20010904/DTD/svg10.dtd">
<!-- Created using Krita: https://krita.org -->
<svg xmlns="http://www.w3.org/2000/svg" 
    xmlns:xlink="http://www.w3.org/1999/xlink"
    xmlns:krita="http://krita.org/namespaces/svg/krita"
    xmlns:sodipodi="http://sodipodi.sourceforge.net/DTD/sodipodi-0.dtd"
    width="730.56pt"
    height="733.2pt"
    viewBox="0 0 730.56 733.2">
<defs>
  <radialGradient id="gradient0" gradientUnits="objectBoundingBox" cx="0" cy="0" fx="0" fy="0" r="1.4142135623731" spreadMethod="repeat">
   <stop stop-color="#ffea00" offset="0.159574463963509" stop-opacity="0.968627450980392"/>
   <stop stop-color="#77b3fe" offset="0.539007067680359" stop-opacity="0.949019607843137"/>
   <stop stop-color="#891688" offset="0.81914895772934" stop-opacity="1"/>
   <stop stop-color="#780422" offset="0.918439745903015" stop-opacity="0.980392156862745"/>
  </radialGradient>
 </defs>
<rect id="shape0" transform="matrix(0.993383432424273 0.114844197481704 -0.114844197481704 0.993383432424273 101.948472555572 36.9542118976894)" fill="url(#gradient0)" fill-rule="evenodd" stroke="#000000" stroke-width="9.6" stroke-linecap="square" stroke-linejoin="bevel" width="600" height="600"/><path id="shape1" transform="matrix(0.996872403804858 0.0893347778831485 -0.135539684995666 0.990990845053216 224.970954077735 165.660204413178)" fill="#891688" fill-rule="evenodd" stroke="#000000" stroke-width="9.6" stroke-linecap="square" stroke-linejoin="bevel" d="M0 194.283L0.0916667 191.179L0.343392 187.981L0.751227 184.693L1.31123 181.322L2.01944 177.871L2.87192 174.345L3.86472 170.749L4.99389 167.088L6.25549 163.365L7.64556 159.586L9.16017 155.756L10.7953 151.878L12.5472 147.959L14.4117 144.001L16.3849 140.011L18.4629 135.993L20.6418 131.951L22.9176 127.89L25.2863 123.814L27.744 119.729L30.2868 115.64L32.9106 111.55L35.6117 107.464L38.3859 103.387L41.2294 99.3242L44.1382 95.2797L47.1084 91.2582L50.136 87.2644L53.217 83.303L56.3476 79.3787L59.5238 75.496L62.7415 71.6598L65.997 67.8746L69.2862 64.145L72.6052 60.4759L75.95 56.8718L79.3167 53.3374L82.7013 49.8774L86.1 46.4964L89.5086 43.1991L92.9234 39.9902L96.3403 36.8743L99.7555 33.8561L103.165 30.9403L106.565 28.1315L109.951 25.4344L113.319 22.8536L116.666 20.3939L119.987 18.0598L123.279 15.8562L126.538 13.7875L129.759 11.8585L132.939 10.0739L136.074 8.43824L139.16 6.9563L142.192 5.63271L145.168 4.47213L148.082 3.47922L150.932 2.65866L152.017 2.40736L149.661 0L152.798 0.139673L156.028 0.474153L159.346 0.998613L160.459 1.23097L161.601 1.19313L161.404 1.42805L162.747 1.70823L166.228 2.59817L169.782 3.66361L173.406 4.89972L177.095 6.30169L180.845 7.86467L184.649 9.58385L188.505 11.4544L192.406 13.4715L196.349 15.6303L200.329 17.926L204.341 20.3537L208.38 22.9087L212.442 25.5861L216.522 28.3811L220.616 31.2888L224.719 34.3045L228.825 37.4233L232.931 40.6403L237.031 43.9508L241.122 47.35L245.198 50.8329L249.255 54.3948L253.288 58.0308L257.292 61.7362L261.263 65.506L265.196 69.3355L269.086 73.2199L272.929 77.1542L276.72 81.1338L280.454 85.1537L284.127 89.2091L287.734 93.2953L291.27 97.4073L294.731 101.54L298.112 105.69L301.408 109.85L304.615 114.018L307.727 118.187L310.741 122.353L313.652 126.511L316.454 130.656L319.144 134.784L321.716 138.889L324.166 142.967L326.49 147.013L328.682 151.023L330.737 154.99L332.653 158.911L334.422 162.781L336.042 166.594L337.506 170.347L338.812 174.034L339.953 177.65L340.925 181.19L341.724 184.651L342.222 187.361L345.443 184.356L345.346 187.218L345.06 190.166L344.588 193.197L343.935 196.307L343.106 199.49L342.105 202.743L340.938 206.062L339.609 209.441L338.123 212.878L336.484 216.367L334.696 219.903L332.766 223.484L330.697 227.104L328.494 230.76L326.161 234.446L323.704 238.159L321.128 241.894L318.436 245.646L315.633 249.413L312.724 253.189L309.715 256.969L306.608 260.75L303.41 264.528L300.125 268.298L296.757 272.055L293.312 275.795L289.793 279.515L286.206 283.209L282.555 286.874L278.845 290.505L275.081 294.098L271.267 297.648L267.407 301.151L263.508 304.603L259.573 308L255.607 311.336L251.614 314.609L247.6 317.813L243.569 320.944L239.525 323.999L235.474 326.971L231.42 329.859L227.368 332.656L223.322 335.358L219.287 337.962L215.268 340.464L211.27 342.857L207.297 345.139L203.353 347.306L199.444 349.352L195.574 351.273L191.748 353.065L187.971 354.725L184.247 356.246L180.581 357.626L176.977 358.86L173.44 359.943L169.976 360.871L166.588 361.641L163.281 362.247L161.144 362.537L161.565 362.973L159.006 362.918L158.156 362.847L156.931 362.951L153.896 363.04L154.543 362.437L153.653 362.311L150.866 361.767L148.012 361.068L145.094 360.219L142.116 359.223L139.082 358.085L135.995 356.808L132.86 355.397L129.681 353.856L126.461 352.189L123.205 350.4L119.916 348.493L116.598 346.472L113.255 344.341L109.892 342.105L106.511 339.767L103.117 337.331L99.7134 334.802L96.3048 332.184L92.8947 329.481L89.487 326.696L86.0857 323.835L82.6946 320.9L79.3177 317.897L75.9588 314.829L72.6219 311.7L69.3108 308.515L66.0295 305.276L62.7819 301.99L59.5718 298.659L56.4033 295.288L53.2801 291.881L50.2062 288.441L47.1855 284.974L44.2219 281.483L41.3193 277.972L38.4816 274.445L35.7127 270.906L33.0165 267.36L30.397 263.811L27.858 260.262L25.4034 256.717L23.0371 253.182L20.7631 249.659L18.5852 246.153L16.5073 242.669L14.5334 239.209L12.6674 235.779L10.9131 232.382L9.27449 229.022L7.75544 225.704L6.35985 222.431L5.09164 219.208L3.95471 216.039L2.95297 212.927L2.09031 209.878L1.37065 206.894L0.797878 203.981L0.375912 201.141"/><rect id="shape2" transform="matrix(0.993383432424273 0.114844197481704 -0.114844197481704 0.993383432424273 138.771755419369 99.2363725774281)" fill="#c04a6d" fill-rule="evenodd" stroke="#000000" stroke-width="9.6" stroke-linecap="square" stroke-linejoin="bevel" width="518.4" height="51.84"/><rect id="shape01" transform="matrix(-0.113088438107711 0.993584832304423 -0.993584832304423 -0.113088438107711 624.048602530854 132.056760719828)" fill="#dd3062" stroke="#000000" stroke-width="9.6" stroke-linecap="square" stroke-linejoin="bevel" width="518.4" height="51.84"/><rect id="shape011" transform="matrix(0.993383452132153 0.114844199760113 -0.114844199760113 0.993383452132153 92.7133013200886 516.907692384908)" fill="#e54175" stroke="#000000" stroke-width="9.6" stroke-linecap="square" stroke-linejoin="bevel" width="518.4" height="51.84"/><rect id="shape02" transform="matrix(-0.113088432552113 0.993584783493447 -0.993584783493447 -0.113088432552113 214.097728489638 160.447547934313)" fill="#cb145a" stroke="#000000" stroke-width="9.6" stroke-linecap="square" stroke-linejoin="bevel" width="444.621576671928" height="51.84"/><ellipse id="shape3" transform="matrix(0.993383432424273 0.114844197481704 -0.114844197481704 0.993383432424273 341.219628755447 332.348705251207)" rx="30.72" ry="28.8" cx="30.72" cy="28.8" fill="#ffff00" fill-rule="evenodd" stroke="#000000" stroke-width="9.6" stroke-linecap="square" stroke-linejoin="bevel"/><ellipse id="shape4" transform="matrix(0.993383432424273 0.114844197481704 -0.114844197481704 0.993383432424273 357.957695295098 194.88143660789)" rx="28.8" ry="64.32" cx="28.8" cy="64.32" fill="#ffea00" fill-rule="evenodd" stroke="#000000" stroke-width="9.6" stroke-linecap="square" stroke-linejoin="bevel"/><ellipse id="shape03" transform="matrix(0.993383469981774 0.114844201823694 -0.114844201823694 0.993383469981774 335.62790353251 398.944558074473)" rx="28.8" ry="64.32" cx="28.8" cy="64.32" fill="#ffea00" stroke="#000000" stroke-width="9.6" stroke-linecap="square" stroke-linejoin="bevel"/><ellipse id="shape04" transform="matrix(-0.118001021872009 0.993013427886408 -0.993013427886408 -0.118001021872009 538.993092532804 354.289004398819)" rx="28.8" ry="64.32" cx="28.8" cy="64.32" fill="#ffea00" stroke="#000000" stroke-width="9.6" stroke-linecap="square" stroke-linejoin="bevel"/><ellipse id="shape05" transform="matrix(-0.118001017138005 0.993013388048334 -0.993013388048334 -0.118001017138005 333.336000734636 332.666409991015)" rx="28.8" ry="64.32" cx="28.8" cy="64.32" fill="#ffea00" stroke="#000000" stroke-width="9.6" stroke-linecap="square" stroke-linejoin="bevel"/><ellipse id="shape06" transform="matrix(0.993383433889736 0.114844197651123 -0.114844197651123 0.993383433889736 422.62280761183 271.508258965232)" rx="30.72" ry="28.8" cx="30.72" cy="28.8" fill="#ffff7d" stroke="#000000" stroke-width="9.6" stroke-linecap="square" stroke-linejoin="bevel"/><ellipse id="shape07" transform="matrix(0.993383433889736 0.114844197651123 -0.114844197651123 0.993383433889736 272.257865358182 255.57428927584)" rx="30.72" ry="28.8" cx="30.72" cy="28.8" fill="#ffff7d" stroke="#000000" stroke-width="9.6" stroke-linecap="square" stroke-linejoin="bevel"/><ellipse id="shape08" transform="matrix(0.993383433889736 0.114844197651123 -0.114844197651123 0.993383433889736 262.021004816474 394.276345905532)" rx="30.72" ry="28.8" cx="30.72" cy="28.8" fill="#ffff7d" stroke="#000000" stroke-width="9.6" stroke-linecap="square" stroke-linejoin="bevel"/><ellipse id="shape09" transform="matrix(0.993383415084041 0.114844195477013 -0.114844195477013 0.993383415084041 404.130893642737 408.10172338736)" rx="30.72" ry="28.8" cx="30.72" cy="28.8" fill="#ffff7d" stroke="#000000" stroke-width="9.6" stroke-linecap="square" stroke-linejoin="bevel"/><rect id="shape010" transform="matrix(-0.113088426551069 0.993584730768815 -0.993584730768815 -0.113088426551069 222.824613290434 85.5749740338849)" fill="#fe1392" stroke="#000000" stroke-width="9.6" stroke-linecap="square" stroke-linejoin="bevel" width="23.1870065795509" height="51.84"/><path id="shape5" transform="matrix(0.993383432424273 0.114844197481704 -0.114844197481704 0.993383432424273 678.510486459836 113.798594153465)" fill="none" stroke="#000000" stroke-width="9.6" stroke-linecap="square" stroke-linejoin="bevel" d="M11.76 0C-3.92 123.84 -3.92 321.44 11.76 592.8C14.32 593.44 14.32 395.84 11.76 0Z"/><path id="shape0111" transform="matrix(-0.111715349512352 0.993740165935522 -0.993740165935522 -0.111715349512352 628.857993105791 683.989873125278)" fill="none" stroke="#000000" stroke-width="9.6" stroke-linecap="square" stroke-linejoin="bevel" d="M11.76 0C-3.92 123.84 -3.92 321.44 11.76 592.8C14.32 593.44 14.32 395.84 11.76 0Z"/><path id="shape012" transform="matrix(0.121297216928314 -0.992616157611802 0.992616157611802 0.121297216928314 100.171851827722 54.5284489110892)" fill="none" stroke="#000000" stroke-width="9.6" stroke-linecap="square" stroke-linejoin="bevel" d="M11.76 0C-3.92 123.84 -3.92 321.44 11.76 592.8C14.32 593.44 14.32 395.84 11.76 0Z"/><path id="shape013" transform="matrix(-0.992024731192836 -0.126042785943615 0.126042785943615 -0.992024731192836 48.6993337342878 626.667997858403)" fill="none" stroke="#000000" stroke-width="9.6" stroke-linecap="square" stroke-linejoin="bevel" d="M11.76 0C-3.92 123.84 -3.92 321.44 11.76 592.8C14.32 593.44 14.32 395.84 11.76 0Z"/><ellipse id="shape015" transform="matrix(0.992175005289493 0.124854065076384 -0.124854065076384 0.992175005289493 685.650237748412 210.163519466152)" rx="14.4" ry="12.96" cx="14.4" cy="12.96" fill="#ffea00" stroke="#000000" stroke-width="1" stroke-linecap="square" stroke-linejoin="bevel"/><ellipse id="shape021" transform="matrix(0.992175005289493 0.124854065076384 -0.124854065076384 0.992175005289493 677.225286235832 282.880624372704)" rx="14.4" ry="12.96" cx="14.4" cy="12.96" fill="#ffea00" stroke="#000000" stroke-width="1" stroke-linecap="square" stroke-linejoin="bevel"/><ellipse id="shape041" transform="matrix(0.992174996215134 0.124854063934475 -0.124854063934475 0.992174996215134 669.188909179703 351.997271524163)" rx="14.4" ry="12.96" cx="14.4" cy="12.96" fill="#ffea00" stroke="#000000" stroke-width="1" stroke-linecap="square" stroke-linejoin="bevel"/><ellipse id="shape01111" transform="matrix(0.992174996215134 0.124854063934475 -0.124854063934475 0.992174996215134 660.484649099562 421.808883811724)" rx="14.4" ry="12.96" cx="14.4" cy="12.96" fill="#ffea00" stroke="#000000" stroke-width="1" stroke-linecap="square" stroke-linejoin="bevel"/><ellipse id="shape0311" transform="matrix(0.992174996215134 0.124854063934475 -0.124854063934475 0.992174996215134 652.832395804012 496.074579940469)" rx="14.4" ry="12.96" cx="14.4" cy="12.96" fill="#ffea00" stroke="#000000" stroke-width="1" stroke-linecap="square" stroke-linejoin="bevel"/><ellipse id="shape0112" transform="matrix(0.992175000569823 0.124854064482468 -0.124854064482468 0.992175000569823 642.905240228413 569.76537577045)" rx="14.4" ry="12.96" cx="14.4" cy="12.96" fill="#ffea00" stroke="#000000" stroke-width="1" stroke-linecap="square" stroke-linejoin="bevel"/><ellipse id="shape0211" transform="matrix(0.992175000569823 0.124854064482468 -0.124854064482468 0.992175000569823 634.480288755917 642.482480331104)" rx="14.4" ry="12.96" cx="14.4" cy="12.96" fill="#ffea00" stroke="#000000" stroke-width="1" stroke-linecap="square" stroke-linejoin="bevel"/><path id="shape011" transform="matrix(0.999999966702043 0 0 0.999999966702043 627.431281065834 108.543295462102)" fill="#ff7f00" fill-rule="evenodd" stroke="#000000" stroke-width="1" stroke-linecap="square" stroke-linejoin="bevel" d="M97.3097 14.7827C98.2037 7.6817 92.5307 1.1197 84.6407 0.1267C76.7497 -0.8663 69.6287 4.0857 68.7347 11.1877C67.8417 18.2887 73.5137 24.8507 81.4047 25.8437C89.2947 26.8367 96.4157 21.8847 97.3097 14.7827M89.3847 83.9817C90.2787 76.8797 84.6067 70.3177 76.7157 69.3247C68.8247 68.3317 61.7037 73.2837 60.8107 80.3857C59.9167 87.4867 65.5887 94.0487 73.4797 95.0417C81.3707 96.0347 88.4917 91.0827 89.3847 83.9817M80.6807 153.793C81.5747 146.692 75.9017 140.13 68.0117 139.137C60.1207 138.144 52.9997 143.096 52.1057 150.197C51.2127 157.299 56.8847 163.861 64.7757 164.854C72.6657 165.847 79.7867 160.895 80.6807 153.793M73.0287 228.059C73.9217 220.957 68.2497 214.395 60.3597 213.402C52.4687 212.409 45.3477 217.362 44.4537 224.463C43.5597 231.565 49.2327 238.127 57.1227 239.12C65.0137 240.113 72.1347 235.161 73.0287 228.059M64.5047 294.002C65.3987 286.9 59.7257 280.338 51.8357 279.345C43.9447 278.353 36.8237 283.305 35.9297 290.406C35.0367 297.508 40.7087 304.07 48.5997 305.063C56.4897 306.056 63.6107 301.104 64.5047 294.002M56.0797 366.719C56.9737 359.617 51.3007 353.056 43.4107 352.063C35.5197 351.07 28.3987 356.022 27.5047 363.123C26.6117 370.225 32.2837 376.787 40.1747 377.78C48.0647 378.773 55.1857 373.821 56.0797 366.719M46.6397 443.583C47.5337 436.482 41.8617 429.92 33.9707 428.927C26.0797 427.934 18.9587 432.886 18.0657 439.988C17.1717 447.089 22.8437 453.651 30.7347 454.644C38.6257 455.637 45.7467 450.685 46.6397 443.583M37.9357 513.395C38.8297 506.293 33.1567 499.732 25.2667 498.739C17.3757 497.746 10.2547 502.698 9.36071 509.799C8.46771 516.901 14.1397 523.463 22.0307 524.456C29.9207 525.449 37.0417 520.497 37.9357 513.395M28.6667 584.553C29.5607 577.451 23.8887 570.89 15.9977 569.897C8.10671 568.904 0.985713 573.856 0.0927127 580.957C-0.801287 588.059 4.87071 594.621 12.7617 595.614C20.6517 596.607 27.7737 591.655 28.6667 584.553"/><ellipse id="shape0131" transform="matrix(0.992174987280769 0.124854062810189 -0.124854062810189 0.992174987280769 693.28968886366 142.590379393896)" rx="14.4" ry="12.96" cx="14.4" cy="12.96" fill="#ffea00" stroke="#000000" stroke-width="1" stroke-linecap="square" stroke-linejoin="bevel"/><ellipse id="shape017" transform="matrix(0.992175005289509 0.124854065076385 -0.124854065076385 0.992175005289509 59.355859979956 136.403954709605)" rx="14.4" ry="12.96" cx="14.4" cy="12.96" fill="#ffea00" stroke="#000000" stroke-width="1" stroke-linecap="square" stroke-linejoin="bevel"/><ellipse id="shape022" transform="matrix(0.992175005289509 0.124854065076385 -0.124854065076385 0.992175005289509 50.9309084673766 209.121059616166)" rx="14.4" ry="12.96" cx="14.4" cy="12.96" fill="#ffea00" stroke="#000000" stroke-width="1" stroke-linecap="square" stroke-linejoin="bevel"/><ellipse id="shape0411" transform="matrix(0.992174996215134 0.124854063934475 -0.124854063934475 0.992174996215134 42.8945314112508 278.237706767622)" rx="14.4" ry="12.96" cx="14.4" cy="12.96" fill="#ffea00" stroke="#000000" stroke-width="1" stroke-linecap="square" stroke-linejoin="bevel"/><ellipse id="shape0132" transform="matrix(0.992174996215134 0.124854063934475 -0.124854063934475 0.992174996215134 34.1902713311091 348.049319055182)" rx="14.4" ry="12.96" cx="14.4" cy="12.96" fill="#ffea00" stroke="#000000" stroke-width="1" stroke-linecap="square" stroke-linejoin="bevel"/><ellipse id="shape033" transform="matrix(0.992174996215134 0.124854063934475 -0.124854063934475 0.992174996215134 26.5380180355605 422.315015183927)" rx="14.4" ry="12.96" cx="14.4" cy="12.96" fill="#ffea00" stroke="#000000" stroke-width="1" stroke-linecap="square" stroke-linejoin="bevel"/><ellipse id="shape011111" transform="matrix(0.992175000569836 0.124854064482467 -0.124854064482467 0.992175000569836 18.4584983950222 495.483660482773)" rx="14.4" ry="12.96" cx="14.4" cy="12.96" fill="#ffea00" stroke="#000000" stroke-width="1" stroke-linecap="square" stroke-linejoin="bevel"/><ellipse id="shape02111" transform="matrix(0.992175000569836 0.124854064482467 -0.124854064482467 0.992175000569836 10.0335469225242 568.200765043423)" rx="14.4" ry="12.96" cx="14.4" cy="12.96" fill="#ffea00" stroke="#000000" stroke-width="1" stroke-linecap="square" stroke-linejoin="bevel"/><path id="shape11" transform="matrix(0.999999966702043 0 0 0.999999966702043 4.60075068609844 34.7837217090371)" fill="#ff7f00" fill-rule="evenodd" stroke="#000000" stroke-width="1" stroke-linecap="square" stroke-linejoin="bevel" d="M28.6673 587.138C29.561 580.036 23.8888 573.475 15.9981 572.482C8.10736 571.489 0.986294 576.441 0.0926438 583.542C-0.801016 590.644 4.87118 597.206 12.7619 598.199C20.6526 599.192 27.7737 594.24 28.6673 587.138M36.3196 512.872C37.2132 505.771 31.541 499.209 23.6504 498.216C15.7597 497.223 8.63856 502.175 7.74486 509.277C6.85126 516.378 12.5235 522.94 20.4141 523.933C28.3048 524.926 35.4259 519.974 36.3196 512.872M45.0238 443.061C45.9175 435.959 40.2453 429.397 32.3546 428.404C24.4639 427.411 17.3428 432.363 16.4492 439.465C15.5555 446.567 21.2277 453.128 29.1184 454.121C37.0091 455.114 44.1302 450.162 45.0238 443.061M52.6159 366.719C53.5095 359.617 47.8373 353.055 39.9467 352.062C32.056 351.069 24.9349 356.021 24.0412 363.123C23.1476 370.224 28.8198 376.786 36.7105 377.779C44.6011 378.772 51.7222 373.82 52.6159 366.719M61.0408 294.001C61.9345 286.9 56.2623 280.338 48.3716 279.345C40.481 278.352 33.3599 283.304 32.4662 290.406C31.5725 297.507 37.2447 304.069 45.1354 305.062C53.0261 306.055 60.1472 301.103 61.0408 294.001M69.5647 228.058C70.4583 220.957 64.7861 214.395 56.8955 213.402C49.0048 212.409 41.8837 217.361 40.99 224.463C40.0964 231.564 45.7686 238.126 53.6593 239.119C61.5499 240.112 68.671 235.16 69.5647 228.058M77.2169 153.793C78.1106 146.691 72.4384 140.129 64.5477 139.136C56.6571 138.143 49.5359 143.095 48.6423 150.197C47.7486 157.298 53.4208 163.86 61.3115 164.853C69.2022 165.846 76.3233 160.894 77.2169 153.793M85.9212 83.9813C86.8149 76.8793 81.1427 70.3173 73.252 69.3253C65.3613 68.3323 58.2402 73.2843 57.3466 80.3853C56.4529 87.4873 62.1251 94.0493 70.0158 95.0423C77.9064 96.0353 85.0275 91.0833 85.9212 83.9813M93.8459 14.7832C94.7395 7.68158 89.0673 1.11968 81.1767 0.126677C73.286 -0.866223 66.1649 4.08578 65.2712 11.1874C64.3776 18.289 70.0498 24.8509 77.9404 25.8439C85.8311 26.8368 92.9522 21.8848 93.8459 14.7832"/><ellipse id="shape01311" transform="matrix(0.992174987280756 0.124854062810186 -0.124854062810186 0.992174987280756 66.9953110952066 68.8308146373544)" rx="14.4" ry="12.96" cx="14.4" cy="12.96" fill="#ffea00" stroke="#000000" stroke-width="1" stroke-linecap="square" stroke-linejoin="bevel"/><ellipse id="shape018" transform="matrix(-0.130777466269356 0.991411636508004 -0.991411636508004 -0.130777466269356 633.016830761313 71.6985943002877)" rx="14.4" ry="12.96" cx="14.4" cy="12.96" fill="#ffea00" stroke="#000000" stroke-width="1" stroke-linecap="square" stroke-linejoin="bevel"/><ellipse id="shape0141" transform="matrix(-0.130777466269356 0.991411636508004 -0.991411636508004 -0.130777466269356 563.258447894561 62.5775491803183)" rx="14.4" ry="12.96" cx="14.4" cy="12.96" fill="#ffea00" stroke="#000000" stroke-width="1" stroke-linecap="square" stroke-linejoin="bevel"/><ellipse id="shape034" transform="matrix(-0.130777466269356 0.991411636508004 -0.991411636508004 -0.130777466269356 489.039777618172 54.481890692681)" rx="14.4" ry="12.96" cx="14.4" cy="12.96" fill="#ffea00" stroke="#000000" stroke-width="1" stroke-linecap="square" stroke-linejoin="bevel"/><ellipse id="shape052" transform="matrix(-0.130777465073277 0.991411627440645 -0.991411627440645 -0.130777465073277 423.148793280957 45.5643641754373)" rx="14.4" ry="12.96" cx="14.4" cy="12.96" fill="#ffea00" stroke="#000000" stroke-width="1" stroke-linecap="square" stroke-linejoin="bevel"/><ellipse id="shape025" transform="matrix(-0.130777465073277 0.991411627440645 -0.991411627440645 -0.130777465073277 350.483302784646 36.7052701534743)" rx="14.4" ry="12.96" cx="14.4" cy="12.96" fill="#ffea00" stroke="#000000" stroke-width="1" stroke-linecap="square" stroke-linejoin="bevel"/><ellipse id="shape062" transform="matrix(-0.130777465647265 0.991411631791985 -0.991411631791985 -0.130777465647265 275.573509550769 28.2657953729608)" rx="14.4" ry="12.96" cx="14.4" cy="12.96" fill="#ffea00" stroke="#000000" stroke-width="1" stroke-linecap="square" stroke-linejoin="bevel"/><ellipse id="shape01221" transform="matrix(-0.130777465647265 0.991411631791985 -0.991411631791985 -0.130777465647265 205.815127015844 19.1447502963745)" rx="14.4" ry="12.96" cx="14.4" cy="12.96" fill="#ffea00" stroke="#000000" stroke-width="1" stroke-linecap="square" stroke-linejoin="bevel"/><path id="shape21" transform="matrix(0.999999966702043 0 0 0.999999966702043 141.121028246013 13.1971330174166)" fill="#ff7f00" fill-rule="evenodd" stroke="#000000" stroke-width="1" stroke-linecap="square" stroke-linejoin="bevel" d="M11.104 28.6543C18.2 29.5904 24.796 23.9575 25.836 16.0729C26.876 8.18827 21.967 1.03767 14.871 0.101667C7.77498 -0.834433 1.17898 4.79847 0.138982 12.6831C-0.901018 20.5677 4.00798 27.7183 11.104 28.6543M83.77 37.5134C90.866 38.4495 97.462 32.8166 98.502 24.932C99.542 17.0474 94.632 9.89677 87.536 8.96077C80.44 8.02467 73.844 13.6576 72.804 21.5422C71.764 29.4268 76.674 36.5774 83.77 37.5134M155.503 46.4214C162.599 47.3575 169.195 41.7245 170.235 33.8399C171.275 25.9553 166.366 18.8048 159.27 17.8687C152.173 16.9327 145.578 22.5656 144.538 30.4502C143.498 38.3348 148.407 45.4853 155.503 46.4214M229.722 54.5171C236.818 55.4531 243.414 49.8202 244.454 41.9356C245.494 34.051 240.584 26.9005 233.488 25.9644C226.392 25.0283 219.796 30.6613 218.756 38.5459C217.716 46.4305 222.626 53.581 229.722 54.5171M299.48 63.6381C306.576 64.5742 313.172 58.9412 314.212 51.0567C315.252 43.1721 310.343 36.0215 303.247 35.0854C296.151 34.1494 289.555 39.7823 288.515 47.6669C287.475 55.5515 292.384 62.702 299.48 63.6381M368.548 72.0871C375.644 73.0232 382.24 67.3903 383.28 59.5057C384.32 51.6211 379.41 44.4705 372.314 43.5345C365.218 42.5984 358.622 48.2313 357.582 56.1159C356.542 64.0005 361.452 71.1511 368.548 72.0871M441.213 80.9462C448.309 81.8823 454.905 76.2494 455.945 68.3648C456.985 60.4802 452.076 53.3296 444.98 52.3936C437.883 51.4575 431.288 57.0904 430.248 64.975C429.208 72.8596 434.117 80.0102 441.213 80.9462M508.739 88.9889C515.836 89.9249 522.431 84.2923 523.471 76.4077C524.511 68.5231 519.602 61.3725 512.506 60.4365C505.41 59.5004 498.814 65.1333 497.774 73.0179C496.734 80.9025 501.643 88.0529 508.739 88.9889"/><ellipse id="shape03111" transform="matrix(-0.130777465647265 0.991411631791985 -0.991411631791985 -0.130777465647265 131.596457092506 11.0490918472477)" rx="14.4" ry="12.96" cx="14.4" cy="12.96" fill="#ffea00" stroke="#000000" stroke-width="1" stroke-linecap="square" stroke-linejoin="bevel"/><ellipse id="shape072" transform="matrix(-0.130777463895647 0.991411618513134 -0.991411618513134 -0.130777463895647 702.166394035467 80.0364127101719)" rx="14.4" ry="12.96" cx="14.4" cy="12.96" fill="#ffea00" stroke="#000000" stroke-width="1" stroke-linecap="square" stroke-linejoin="bevel"/><ellipse id="shape020" transform="matrix(-0.122454921683853 0.992473964818592 -0.992473964818592 -0.122454921683853 556.013333519906 692.407197344335)" rx="14.4" ry="12.96" cx="14.4" cy="12.96" fill="#ffea00" stroke="#000000" stroke-width="1" stroke-linecap="square" stroke-linejoin="bevel"/><ellipse id="shape0161" transform="matrix(-0.122454921683853 0.992473964818592 -0.992473964818592 -0.122454921683853 486.180880364326 683.871745947988)" rx="14.4" ry="12.96" cx="14.4" cy="12.96" fill="#ffea00" stroke="#000000" stroke-width="1" stroke-linecap="square" stroke-linejoin="bevel"/><ellipse id="shape036" transform="matrix(-0.122454921683853 0.992473964818592 -0.992473964818592 -0.122454921683853 411.896899778106 676.399066896281)" rx="14.4" ry="12.96" cx="14.4" cy="12.96" fill="#ffea00" stroke="#000000" stroke-width="1" stroke-linecap="square" stroke-linejoin="bevel"/><ellipse id="shape053" transform="matrix(-0.122454920563891 0.99247395574149 -0.99247395574149 -0.122454920563891 345.933416553261 668.034679473527)" rx="14.4" ry="12.96" cx="14.4" cy="12.96" fill="#ffea00" stroke="#000000" stroke-width="1" stroke-linecap="square" stroke-linejoin="bevel"/><ellipse id="shape027" transform="matrix(-0.122454920563891 0.99247395574149 -0.99247395574149 -0.122454920563891 273.196155857779 659.785560582609)" rx="14.4" ry="12.96" cx="14.4" cy="12.96" fill="#ffea00" stroke="#000000" stroke-width="1" stroke-linecap="square" stroke-linejoin="bevel"/><ellipse id="shape063" transform="matrix(-0.122454921101352 0.992473960097498 -0.992473960097498 -0.122454921101352 196.835799616309 652.378101179291)" rx="14.4" ry="12.96" cx="14.4" cy="12.96" fill="#ffea00" stroke="#000000" stroke-width="1" stroke-linecap="square" stroke-linejoin="bevel"/><ellipse id="shape0123" transform="matrix(-0.122454921101352 0.992473960097498 -0.992473960097498 -0.122454921101352 127.003346792917 643.842649823548)" rx="14.4" ry="12.96" cx="14.4" cy="12.96" fill="#ffea00" stroke="#000000" stroke-width="1" stroke-linecap="square" stroke-linejoin="bevel"/><ellipse id="shape0312" transform="matrix(-0.122454921101352 0.992473960097498 -0.992473960097498 -0.122454921101352 52.7193665600543 636.36997080739)" rx="14.4" ry="12.96" cx="14.4" cy="12.96" fill="#ffea00" stroke="#000000" stroke-width="1" stroke-linecap="square" stroke-linejoin="bevel"/><ellipse id="shape073" transform="matrix(-0.122454919461204 0.992473946804408 -0.992473946804408 -0.122454919461204 625.230417240754 700.164557592721)" rx="14.4" ry="12.96" cx="14.4" cy="12.96" fill="#ffea00" stroke="#000000" stroke-width="1" stroke-linecap="square" stroke-linejoin="bevel"/><path id="shape31" transform="matrix(0.999999966702043 0 0 0.999999966702043 62.3850350039003 638.325767574228)" fill="#ff7f00" fill-rule="evenodd" stroke="#000000" stroke-width="1" stroke-linecap="square" stroke-linejoin="bevel" d="M510.727 84.4262C517.831 85.3032 524.379 79.6152 525.353 71.7222C526.327 63.8292 521.358 56.7202 514.254 55.8432C507.15 54.9672 500.602 60.6552 499.628 68.5482C498.654 76.4412 503.623 83.5502 510.727 84.4262M443.136 76.9502C450.24 77.8272 456.788 72.1392 457.762 64.2462C458.735 56.3532 453.766 49.2442 446.662 48.3672C439.559 47.4912 433.011 53.1792 432.037 61.0722C431.063 68.9652 436.032 76.0742 443.136 76.9502M370.399 68.7012C377.502 69.5782 384.05 63.8902 385.024 55.9972C385.998 48.1042 381.029 40.9942 373.925 40.1182C366.821 39.2422 360.273 44.9302 359.299 52.8232C358.326 60.7162 363.295 67.8252 370.399 68.7012M301.263 60.8322C308.366 61.7082 314.915 56.0202 315.888 48.1272C316.862 40.2342 311.893 33.1252 304.789 32.2492C297.686 31.3722 291.137 37.0602 290.164 44.9532C289.19 52.8462 294.159 59.9562 301.263 60.8322M231.43 52.2972C238.534 53.1732 245.082 47.4852 246.056 39.5922C247.03 31.6992 242.061 24.5902 234.957 23.7132C227.853 22.8372 221.305 28.5252 220.331 36.4182C219.357 44.3112 224.326 51.4202 231.43 52.2972M157.146 44.8242C164.25 45.7002 170.798 40.0122 171.772 32.1192C172.746 24.2262 167.777 17.1172 160.673 16.2412C153.569 15.3642 147.021 21.0522 146.047 28.9452C145.073 36.8382 150.042 43.9472 157.146 44.8242M83.958 36.9212C91.062 37.7982 97.61 32.1102 98.584 24.2172C99.558 16.3242 94.589 9.21521 87.485 8.33821C80.381 7.46221 73.833 13.1502 72.859 21.0432C71.885 28.9362 76.854 36.0452 83.958 36.9212M11.221 28.6722C18.3247 29.5492 24.8729 23.8612 25.8468 15.9682C26.8207 8.07521 21.8514 0.965211 14.7477 0.0892112C7.64388 -0.787789 1.09568 4.90021 0.121877 12.7942C-0.852023 20.6872 4.11718 27.7962 11.221 28.6722"/><path id="shape6" transform="matrix(0.962310338539578 -0.271953389113042 0.271953389113042 0.962310338539578 102.534854765586 40.1530408816084)" fill="none" stroke="#000000" stroke-width="2.88" stroke-linecap="square" stroke-linejoin="miter" stroke-miterlimit="2" stroke-dasharray="2.88,5.76" d="M0 0L336.696 765.712"/><path id="shape7" transform="matrix(0.962310338539578 -0.271953389113042 0.271953389113042 0.962310338539578 -47.4307216214663 318.026108380511)" fill="none" stroke="#000000" stroke-width="2.88" stroke-linecap="square" stroke-linejoin="miter" stroke-miterlimit="2" stroke-dasharray="2.88,5.76" d="M771.84 0L0 318.72"/>
</svg>
